<svg xmlns="http://www.w3.org/2000/svg" viewBox="0 0 64 64">
  <!-- Kalash (Sacred Pot) -->
  <defs>
    <linearGradient id="gold" x1="0%" y1="0%" x2="100%" y2="100%">
      <stop offset="0%" style="stop-color:#FFD700"/>
      <stop offset="50%" style="stop-color:#FFA500"/>
      <stop offset="100%" style="stop-color:#B8860B"/>
    </linearGradient>
  </defs>
  <!-- Pot body -->
  <ellipse cx="32" cy="52" rx="18" ry="8" fill="url(#gold)"/>
  <path d="M14 52 Q14 35 20 30 L44 30 Q50 35 50 52 Z" fill="url(#gold)"/>
  <!-- Pot neck -->
  <rect x="24" y="24" width="16" height="8" fill="url(#gold)"/>
  <!-- Pot rim -->
  <ellipse cx="32" cy="24" rx="10" ry="4" fill="#FFD700"/>
  <!-- Coconut -->
  <ellipse cx="32" cy="18" rx="8" ry="6" fill="#8B4513"/>
  <!-- Mango leaves -->
  <path d="M32 12 Q24 8 20 2" stroke="#228B22" stroke-width="2" fill="none"/>
  <path d="M32 12 Q28 6 26 0" stroke="#228B22" stroke-width="2" fill="none"/>
  <path d="M32 12 Q32 4 32 0" stroke="#228B22" stroke-width="2" fill="none"/>
  <path d="M32 12 Q36 6 38 0" stroke="#228B22" stroke-width="2" fill="none"/>
  <path d="M32 12 Q40 8 44 2" stroke="#228B22" stroke-width="2" fill="none"/>
  <!-- Decorative band on pot -->
  <rect x="16" y="40" width="32" height="3" fill="#B8860B"/>
</svg>
